<?xml version="1.0" encoding="UTF-8" standalone="no"?>
<!-- Created with Inkscape (http://www.inkscape.org/) -->

<svg
   version="1.1"
   id="svg1"
   width="2829.3333"
   height="2829.3333"
   viewBox="0 0 2829.3333 2829.3333"
   sodipodi:docname="logo-tenculo-final.svg"
   inkscape:version="1.4.3 (0d15f75042, 2025-12-25)"
   xmlns:inkscape="http://www.inkscape.org/namespaces/inkscape"
   xmlns:sodipodi="http://sodipodi.sourceforge.net/DTD/sodipodi-0.dtd"
   xmlns="http://www.w3.org/2000/svg"
   xmlns:svg="http://www.w3.org/2000/svg">
  <defs
     id="defs1" />
  <sodipodi:namedview
     id="namedview1"
     pagecolor="#ffffff"
     bordercolor="#000000"
     borderopacity="0.25"
     inkscape:showpageshadow="2"
     inkscape:pageopacity="0.0"
     inkscape:pagecheckerboard="0"
     inkscape:deskcolor="#d1d1d1"
     inkscape:zoom="0.13890199"
     inkscape:cx="1119.4944"
     inkscape:cy="1252.6819"
     inkscape:window-width="1366"
     inkscape:window-height="699"
     inkscape:window-x="0"
     inkscape:window-y="0"
     inkscape:window-maximized="1"
     inkscape:current-layer="g1">
    <inkscape:page
       x="0"
       y="0"
       inkscape:label="1"
       id="page1"
       width="2829.3333"
       height="2829.3333"
       margin="0"
       bleed="0" />
  </sodipodi:namedview>
  <g
     id="g1"
     inkscape:groupmode="layer"
     inkscape:label="1">
    <path
       id="path2"
       d="m 2009.0133,1198.8133 c 20.3866,5.3867 42.1333,4.72 59.4533,-4.08 80.6667,-40.9733 95.4667,-194.78662 81.5733,-271.90662 C 2094.8933,616.56002 1716,588.24002 1494.8666,726.61335 1242.932,884.26668 1251.3226,1284.48 1330.5106,1530.2933 c 14.396,44.7067 36.796,86.4267 63.0627,126.4534 9.1467,-3.52 18.4,-6.88 27.8267,-9.8667 91.64,-28.96 205.7466,-42.16 287.5866,16.9067 15.56,11.2266 29.0134,24.48 40.7067,39.1466 -0.4533,-2.6533 -0.8667,-5.32 -1.3467,-7.96 C 1717.68,1529.1333 1565.2,1437.6267 1548.5333,1261.5333 1535.0666,1119.28 1565.2,927.77335 1697.76,849.53335 c 96.9866,-57.25333 250.5866,-66.4 321.1066,37.64 48.1333,71 41.2267,177.99995 -2.0533,247.65335 -12.6267,20.3066 -40.9733,42.5066 -58.4933,65.88 15.9866,-4.6267 33.24,-3.1867 50.6933,-1.8934"
       style="fill:#025373;fill-opacity:1;fill-rule:nonzero;stroke:#000000;stroke-width:15;stroke-dasharray:none" />
    <path
       id="path3"
       d="m 1268.8493,778.50668 c -7.828,74.8 -69.4587,152.92 -128.8853,195.49333 -51.3134,36.75999 -126.4854,51.21329 -144.93736,-26.92 -14.51066,-61.43999 35.31196,-127.43999 69.91066,-173.45333 28.4267,-37.79999 84.208,-111.25333 129.1773,-90.46666 52.1094,3.76 80.1454,43.65333 74.7347,95.34666 z m -222.4067,776.38662 c -23.864,58.44 -79.80262,110.6934 -137.02129,54.3734 -45,-44.28 -37.95733,-126.6667 -33.17067,-184.04 3.93734,-47.1467 12.04667,-139.0134 61.18134,-145.36 46.11466,-24.56 91.07862,-5.72 114.02662,40.92 33.1974,67.48 22.62,166.4266 -5.016,234.1066 z m 970.344,-1106.39994 c -9.6533,21.58667 -29.96,38.16 -57.7066,46.54667 -71.9734,21.78666 -167.88,-4.73334 -230.1734,-43.01334 -41.84,-25.70666 -76.8133,-69.98666 -59.72,-110.63999 -87.6,-6.96 -177.3333,-1.42667 -264.64,16.36 3.0534,19.38666 -1.4133,40.65333 -13.48,61.31999 -37.9066,64.94667 -126.2226,110.78667 -197.9106,125.13333 -50.416,10.09334 -109.156,0.17334 -120.9267,-46.44 -52.7867,36.57334 -101.05732,77.74667 -144.89599,122.73334 7.85467,13.49333 12.28133,29.98666 12.588,48.54666 1.256,75.2 -50.504,160.17333 -104.364,209.61333 -32.25066,29.6 -77.172,49.89333 -110.94266,34.45333 -38.79733,80.46667 -68.97867,165.52002 -90.73467,252.93332 23.62534,5.5733 43.964,23.0933 57.08934,49.7733 33.19733,67.4667 22.61866,166.4134 -5.02134,234.0934 -17.896,43.84 -53.83866,84.1866 -94.82799,77.8666 0.396,68.4267 5.49466,136.4 15.22399,202.8934 32.48934,-15.8134 68.896,-6.3334 96.93734,24.1066 50.94799,55.32 68.83866,153.1867 61.50533,225.9334 -5.09334,50.5466 -31.26534,103.0933 -78.20267,101.9866 65.59333,192.7867 174.98933,370.0667 366.47862,439.1467 4.1094,1.1866 8.224,2.1333 12.3334,3.16 -8.2867,-3.9067 -16.0894,-8.48 -23.1614,-13.9867 -6.7506,-6.9067 -4.7293,-5.6933 -2.9373,-10 -12.3853,-29.7467 -37.2453,-53.3067 -49.63066,-83.9867 -30.97866,-76.7066 -14.53066,-178.68 5.09334,-255.1333 C 1048.448,1952.72 1185.7453,1736.6667 1393.5733,1656.7467 1367.3066,1616.72 1344.9066,1575 1330.5106,1530.2933 1251.3226,1284.48 1242.932,884.26668 1494.8666,726.61335 1716,588.24002 2094.8933,616.56002 2150.0399,922.82668 c 13.8934,77.12 -0.9066,230.93332 -81.5733,271.90662 -17.32,8.8 -39.0667,9.4667 -59.4533,4.08 -17.4533,-1.2933 -34.7067,-2.7333 -50.6933,1.8934 -1.9867,0.56 -3.9467,1.1866 -5.8934,1.96 -47.6133,18.92 -20.9733,105.84 7.0667,131.16 39.9067,36.0266 105.44,29.9733 151.6,11.8533 112.7466,-44.2533 166.52,-164.6 190.2666,-275.4933 8.2,-38.3467 13,-77.29335 14.84,-116.40002 -1.3333,-47.13333 -7.1333,-90.86666 -16.5466,-126.77333 -45.2934,-172.73333 -149.28,-298.03999 -282.8667,-378.51999"
       style="fill:#04b2d9;fill-opacity:1;fill-rule:nonzero;stroke:#000000;stroke-width:15;stroke-dasharray:none" />
    <path
       id="path4"
       d="m 1050.568,2234.4 c 36.9213,-198.0267 294.6453,-523.4133 529.8986,-452.0267 167.5867,50.8534 98.2267,230.2267 35.2,338.4267 -84.8,145.5866 -266.28,321.48 -450.1973,302.6666 -75.8653,-7.7733 -139.0373,-120.44 -114.9013,-189.0666 z m 658.4186,-570.6133 C 1627.1466,1604.72 1513.04,1617.92 1421.4,1646.88 c -9.4267,2.9867 -18.68,6.3467 -27.8267,9.8667 -207.828,79.92 -345.1253,295.9733 -398.81332,505.1466 -19.624,76.4533 -36.072,178.4267 -5.09334,255.1333 12.38536,30.68 37.24536,54.24 49.63066,83.9867 -1.792,4.3067 -3.8133,3.0933 2.9373,10 7.072,5.5067 14.8747,10.08 23.1614,13.9867 102.792,48.4 291.5506,-20.9067 376.7373,-63.9067 194.9333,-98.3867 353.6,-324.1333 366.8533,-543 4.4934,-74.1066 -12.48,-156.4 -59.2933,-215.16 -11.6933,-14.6666 -25.1467,-27.92 -40.7067,-39.1466"
       style="fill:#025373;fill-opacity:1;fill-rule:nonzero;stroke:#000000;stroke-width:10;stroke-dasharray:none" />
    <path
       id="path5"
       d="m 1265.5266,2110.48 c 15.604,-39.4267 41.6814,-74.6133 75.02,-100.8133 10.04,-7.8934 23.2667,-17.3067 37.7867,-25.1467 26.6667,-14.3733 57.6533,-23.4 81.04,-7.7067 25.1333,16.88 29.08,50.4 21.3467,77.52 -16.92,59.2934 -98.6134,153.1867 -165.064,159.8667 -67.9627,6.8266 -69.2027,-55.5467 -50.1294,-103.72 z m -100.0573,312.9866 c 183.9173,18.8134 365.3973,-157.08 450.1973,-302.6666 63.0267,-108.2 132.3867,-287.5733 -35.2,-338.4267 -235.2533,-71.3866 -492.9773,254 -529.8986,452.0267 -24.136,68.6266 39.036,181.2933 114.9013,189.0666"
       style="fill:#04b2d9;fill-opacity:1;fill-rule:nonzero;stroke:#000000;stroke-width:15;stroke-dasharray:none" />
    <path
       id="path6"
       d="m 1315.656,2214.2 c 66.4506,-6.68 148.144,-100.5733 165.064,-159.8667 7.7333,-27.12 3.7866,-60.64 -21.3467,-77.52 -23.3867,-15.6933 -54.3733,-6.6666 -81.04,7.7067 -14.52,7.84 -27.7467,17.2533 -37.7867,25.1467 -33.3386,26.2 -59.416,61.3866 -75.02,100.8133 -19.0733,48.1733 -17.8333,110.5466 50.1294,103.72"
       style="fill:#049dd9;fill-opacity:1;fill-rule:nonzero;stroke:#000000;stroke-width:6;stroke-dasharray:none" />
    <path
       id="path7"
       d="m 764.78665,1980.7067 c 7.33333,-72.7467 -10.55734,-170.6134 -61.50533,-225.9334 -28.04134,-30.44 -64.448,-39.92 -96.93734,-24.1066 -8.32799,4.0666 -16.41199,9.6933 -24.01599,17.16 -21.292,9.4 -28.552,34.3466 -29.27067,62.96 0.44267,-0.8667 0.84933,-1.7734 1.36,-2.5467 8.48933,-16.64 25.588,-29.04 44.65067,-26.3467 28.82266,4.0534 43.45333,39.0667 52.61466,62.8134 13.812,35.8266 20.14,81.56 21.54667,119.8133 1.00533,27.12 1.47866,70.08 -31.96934,78.0667 -11.99466,2.8666 -22.176,-0.027 -30.86933,-6.5734 10.24,14.8 22.72933,27.2934 38.396,35.6534 13.828,7.3866 26.416,10.76 37.79733,11.0266 46.93733,1.1067 73.10933,-51.44 78.20267,-101.9866"
       style="fill:#049dd9;fill-opacity:1;fill-rule:nonzero;stroke:#000000;stroke-width:10;stroke-dasharray:none" />
    <path
       id="path8"
       d="m 557.82799,1457.1467 c -55.172,-4.1334 -40.79734,-106.8934 -38.56267,-142.2 2.36533,-37.3867 7.396,-91.5334 27.08933,-107.4667 13.15067,-13.2667 33.208,-19.8667 50.55734,-11.52 26.21333,12.64 29.50933,50.4267 31.01466,75.84 2.26667,38.3333 -5.60933,83.8267 -15.9,120.6933 -7.29733,26.1467 -19.90666,67.2134 -54.19866,64.6534 z m 128.11999,-7.24 c 27.64,-67.68 38.21867,-166.6267 5.02134,-234.0934 -13.12534,-26.68 -33.464,-44.2 -57.08934,-49.7733 -17.68266,-4.1733 -37.19733,-1.6667 -56.93733,8.8533 -49.136,6.3467 -57.24533,98.2134 -61.18266,145.3467 -4.79067,57.3733 -11.828,139.76 33.16666,184.0533 14.308,14.08 28.532,21.3734 42.19334,23.48 40.98933,6.32 76.93199,-34.0266 94.82799,-77.8666"
       style="fill:#049dd9;fill-opacity:1;fill-rule:nonzero;stroke:#000000;stroke-width:10;stroke-dasharray:none" />
    <path
       id="path9"
       d="m 982.72931,1516.7333 c -6.09333,26.4534 -16.812,68.0534 -51.18267,67.0534 -55.30133,-1.6 -45.64533,-104.9067 -45.03066,-140.28 0.65066,-37.4534 3.20266,-91.7867 22.15066,-108.5867 12.52667,-13.8533 32.26,-21.3733 49.96934,-13.8267 26.77066,11.4267 31.79066,49.0267 34.452,74.3467 4.02133,38.1867 -1.76534,83.9867 -10.35867,121.2933 z m -45.29733,-236.8666 c -49.13467,6.3466 -57.244,98.2133 -61.18134,145.36 -4.78666,57.3733 -11.82933,139.76 33.17067,184.04 57.21867,56.32 113.15729,4.0666 137.02129,-54.3734 27.636,-67.68 38.2134,-166.6266 5.016,-234.1066 -22.948,-46.64 -67.91196,-65.48 -114.02662,-40.92"
       style="fill:#049dd9;fill-opacity:1;fill-rule:nonzero;stroke:none;stroke-width:0.133333" />
    <path
       id="path10"
       d="m 1192.26,811.33335 c -20.0147,32.76 -52.4427,65.61333 -81.9374,90.02666 -20.9213,17.30667 -54.708,43.82667 -81.4013,22.14667 -42.94799,-34.88 27.5107,-111.05333 49.496,-138.77333 23.276,-29.34666 58.3173,-70.93333 83.5773,-72.77333 18.3654,-3.38667 38.6094,2.62667 48.084,19.38667 14.3174,25.33333 -4.548,58.25333 -17.8186,79.98666 z m 1.8546,-128.17333 c -44.9693,-20.78667 -100.7506,52.66667 -129.1773,90.46666 -34.5987,46.01334 -84.42132,112.01334 -69.91066,173.45333 18.45196,78.13329 93.62396,63.67999 144.93736,26.92 59.4266,-42.57333 121.0573,-120.69333 128.8853,-195.49333 5.4107,-51.69333 -22.6253,-91.58666 -74.7347,-95.34666"
       style="fill:#049dd9;fill-opacity:1;fill-rule:nonzero;stroke:none;stroke-width:0.133333" />
    <path
       id="path11"
       d="m 1193.156,544.20002 c 71.688,-14.34666 160.004,-60.18666 197.9106,-125.13333 12.0667,-20.66666 16.5334,-41.93333 13.48,-61.31999 -3.5733,-22.76 -17.56,-42.92 -42.36,-56.33334 -15.68,-18.13333 -42.76,-17.16 -71.2226,-8.78666 10.6613,1.4 20.224,6.14666 26.9053,16.62666 29.7307,46.66667 -61.1867,96.68 -90.8067,116.02667 -31.3493,20.49333 -77.74,48.88 -102.2866,42.64 -18.4947,-2.58667 -35.8027,-14.68 -39.4947,-33.58667 -0.4373,-2.24 -0.5987,-4.45333 -0.6413,-6.65333 -5.9054,10.05333 -10.26,20.81333 -12.504,32.34666 -2.8387,14.61334 -2.584,27.12 0.093,37.73333 11.7707,46.61334 70.5107,56.53334 120.9267,46.44"
       style="fill:#049dd9;fill-opacity:1;fill-rule:nonzero;stroke:#000000;stroke-width:10;stroke-dasharray:none" />
    <path
       id="path12"
       d="m 1736.28,316.7067 c 18.2933,-22.62667 55.84,-17.18667 80.9333,-12.84 37.84,6.57333 80.3067,24.65333 113.84,43.10666 23.7867,13.09334 60.88,34.77333 50.5333,67.54667 -16.6533,52.77333 -113.4,15.25333 -147.2666,5 -35.84,-10.85334 -87.4,-28.16 -98.3867,-50.97334 -9.9067,-15.82666 -11.76,-36.86666 0.3467,-51.83999 z m -7.3734,135.31999 c 62.2934,38.28 158.2,64.8 230.1734,43.01334 27.7466,-8.38667 48.0533,-24.96 57.7066,-46.54667 7.6533,-17.13333 8.6133,-37.4 1.2133,-59.30667 1.72,-49.50666 -87.5999,-72.45333 -133.4799,-83.99999 -55.8267,-14.05334 -135.9734,-34.38667 -186.9867,2.81333 -14.3867,10.49333 -23.4667,21.78667 -28.3467,33.38667 -17.0933,40.65333 17.88,84.93333 59.72,110.63999"
       style="fill:#049dd9;fill-opacity:1;fill-rule:nonzero;stroke:#000000;stroke-width:10;stroke-dasharray:none" />
    <path
       id="path13"
       d="m 835.55731,878.65335 c 53.86,-49.44 105.62,-134.41333 104.364,-209.61333 -0.30667,-18.56 -4.73333,-35.05333 -12.588,-48.54666 -14.14533,-24.29334 -39.54667,-38.73334 -73.09866,-37.09334 -17,-5.48 -33.90667,1.4 -49.69867,14.30667 0.016,0 0.0213,0 0.0373,-0.0133 17.52534,-6.45334 38.5,-3.96 50.67734,10.96 18.40533,22.53333 5.39466,58.18666 -4.00534,81.83999 -14.16666,35.69334 -40.55733,73.56 -65.49066,102.61333 -17.68134,20.6 -46.484,52.48 -76.46267,35.64 -16.56266,-9.30666 -20.776,-25.68 -18.48,-44.41333 -9.07733,28.77333 -12.28133,58.18667 -2.38,85.08 8.50534,23.09333 21.26134,36.86666 36.18267,43.69333 33.77066,15.44 78.692,-4.85333 110.94266,-34.45333"
       style="fill:#049dd9;fill-opacity:1;fill-rule:nonzero;stroke:#000000;stroke-width:10;stroke-dasharray:none" />
    <path
       id="path14"
       d="m 641.25998,2042.5867 c 33.448,-7.9867 32.97467,-50.9467 31.96934,-78.0667 -1.40667,-38.2533 -7.73467,-83.9867 -21.54667,-119.8133 -9.16133,-23.7467 -23.792,-58.76 -52.61466,-62.8134 -19.06267,-2.6933 -36.16134,9.7067 -44.65067,26.3467 -0.51067,0.7733 -0.91733,1.68 -1.36,2.5467 -11.636,22.5733 -0.55733,73.0533 8.224,108.0533 6.688,26.6667 18.792,94.3467 49.10933,117.1733 8.69333,6.5467 18.87467,9.44 30.86933,6.5734"
       style="fill:#081b26;fill-opacity:1;fill-rule:nonzero;stroke:#000000;stroke-width:10;stroke-dasharray:none" />
    <path
       id="path15"
       d="m 612.02665,1392.4933 c 10.29067,-36.8666 18.16667,-82.36 15.9,-120.6933 -1.50533,-25.4133 -4.80133,-63.2 -31.01466,-75.84 -17.34934,-8.3467 -37.40667,-1.7467 -50.55734,11.52 -19.69333,15.9333 -24.724,70.08 -27.08933,107.4667 -2.23467,35.3066 -16.60933,138.0666 38.56267,142.2 34.292,2.56 46.90133,-38.5067 54.19866,-64.6534"
       style="fill:#081b26;fill-opacity:1;fill-rule:nonzero;stroke:#000000;stroke-width:10;stroke-dasharray:none" />
    <path
       id="path16"
       d="m 958.63598,1321.0933 c -17.70934,-7.5466 -37.44267,-0.027 -49.96934,13.8267 -18.948,16.8 -21.5,71.1333 -22.15066,108.5867 -0.61467,35.3733 -10.27067,138.68 45.03066,140.28 34.37067,1 45.08934,-40.6 51.18267,-67.0534 8.59333,-37.3066 14.38,-83.1066 10.35867,-121.2933 -2.66134,-25.32 -7.68134,-62.92 -34.452,-74.3467"
       style="fill:#081b26;fill-opacity:1;fill-rule:nonzero;stroke:#000000;stroke-width:10;stroke-dasharray:none" />
    <path
       id="path17"
       d="m 1161.9946,711.96002 c -25.26,1.84 -60.3013,43.42667 -83.5773,72.77333 -21.9853,27.72 -92.44399,103.89333 -49.496,138.77333 26.6933,21.68 60.48,-4.84 81.4013,-22.14667 29.4947,-24.41333 61.9227,-57.26666 81.9374,-90.02666 13.2706,-21.73333 32.136,-54.65333 17.8186,-79.98666 -9.4746,-16.76 -29.7186,-22.77334 -48.084,-19.38667"
       style="fill:#081b26;fill-opacity:1;fill-rule:nonzero;stroke:#000000;stroke-width:10;stroke-dasharray:none" />
    <path
       id="path18"
       d="m 709.29198,828.74668 c 29.97867,16.84 58.78133,-15.04 76.46267,-35.64 24.93333,-29.05333 51.324,-66.91999 65.49066,-102.61333 9.4,-23.65333 22.41067,-59.30666 4.00534,-81.83999 -12.17734,-14.92 -33.152,-17.41334 -50.67734,-10.96 -0.016,0.0133 -0.0213,0.0133 -0.0373,0.0133 -24.572,6.12 -52.04133,53.02666 -69.99467,85.88 -11.13999,20.37333 -39.33866,64.89333 -43.72933,100.74666 -2.296,18.73333 1.91734,35.10667 18.48,44.41333"
       style="fill:#081b26;fill-opacity:1;fill-rule:nonzero;stroke:#000000;stroke-width:10;stroke-dasharray:none" />
    <path
       id="path19"
       d="m 1085.2813,434.33336 c 3.692,18.90667 21,31 39.4947,33.58667 24.5466,6.24 70.9373,-22.14667 102.2866,-42.64 29.62,-19.34667 120.5374,-69.36 90.8067,-116.02667 -6.6813,-10.48 -16.244,-15.22666 -26.9053,-16.62666 -18.844,-2.46667 -41.1614,5.65333 -57.324,11.93333 -35.6974,13.82667 -76.8374,34.76 -106.1867,59.53333 -17.9267,15.12 -43.292,37.77333 -42.8133,63.58667 0.043,2.2 0.204,4.41333 0.6413,6.65333"
       style="fill:#081b26;fill-opacity:1;fill-rule:nonzero;stroke:#000000;stroke-width:10;stroke-dasharray:none" />
    <path
       id="path20"
       d="m 1735.9333,368.54669 c 10.9867,22.81334 62.5467,40.12 98.3867,50.97334 33.8666,10.25333 130.6133,47.77333 147.2666,-5 10.3467,-32.77334 -26.7466,-54.45333 -50.5333,-67.54667 -33.5333,-18.45333 -76,-36.53333 -113.84,-43.10666 -25.0933,-4.34667 -62.64,-9.78667 -80.9333,12.84 -12.1067,14.97333 -10.2534,36.01333 -0.3467,51.83999"
       style="fill:#081b26;fill-opacity:1;fill-rule:nonzero;stroke:none;stroke-width:0.133333" />
  </g>
</svg>
